<mxfile host="app.diagrams.net" modified="2023-07-20T15:00:45.908Z" agent="Mozilla/5.0 (Windows NT 10.0; Win64; x64) AppleWebKit/537.36 (KHTML, like Gecko) Chrome/114.0.0.0 Safari/537.36" etag="m2X0bV9tzTl7uI_HYQuy" version="21.6.3" type="device">
  <diagram name="Page-1" id="L9pIz6ykhndlbjjti8eC">
    <mxGraphModel dx="1434" dy="788" grid="1" gridSize="10" guides="1" tooltips="1" connect="1" arrows="1" fold="1" page="1" pageScale="1" pageWidth="850" pageHeight="1100" math="0" shadow="0">
      <root>
        <mxCell id="0" />
        <mxCell id="1" parent="0" />
        <mxCell id="EbVQx5wD54C_xNYTqxab-3" style="edgeStyle=orthogonalEdgeStyle;rounded=0;orthogonalLoop=1;jettySize=auto;html=1;entryX=0.5;entryY=0;entryDx=0;entryDy=0;" edge="1" parent="1" source="EbVQx5wD54C_xNYTqxab-1" target="EbVQx5wD54C_xNYTqxab-2">
          <mxGeometry relative="1" as="geometry" />
        </mxCell>
        <mxCell id="EbVQx5wD54C_xNYTqxab-1" value="Start" style="rounded=1;whiteSpace=wrap;html=1;" vertex="1" parent="1">
          <mxGeometry x="70" y="80" width="120" height="60" as="geometry" />
        </mxCell>
        <mxCell id="EbVQx5wD54C_xNYTqxab-2" value="End" style="rounded=1;whiteSpace=wrap;html=1;" vertex="1" parent="1">
          <mxGeometry x="70" y="240" width="120" height="60" as="geometry" />
        </mxCell>
      </root>
    </mxGraphModel>
  </diagram>
</mxfile>
